<?xml version="1.0" encoding="UTF-8"?>
<svg width="54px" height="54px" viewBox="0 0 54 54" version="1.1" xmlns="http://www.w3.org/2000/svg" xmlns:xlink="http://www.w3.org/1999/xlink">
    <title>logo-mobile</title>
    <<g id="SvgjsG2854" transform="matrix(1.2130870819091797,0,0,1.2130870819091797,-15.659768594230545,-4.1615352809808215)" fill="#c12f2f">
    <g xmlns="http://www.w3.org/2000/svg">
      <path d="M22.179,93.382c-1.759-0.365-3.517-0.755-5.316-0.839c-0.27-0.013-0.552,0.047-0.629-0.287   c-0.113-0.484,0.263-0.459,0.558-0.511c0.198-0.035,0.432,0.012,0.683-0.419c-0.773,0-1.436,0.003-2.098-0.001   c-0.301-0.002-0.604-0.001-0.903-0.036c-0.224-0.026-0.429-0.143-0.424-0.417c0.007-0.352,0.272-0.431,0.541-0.431   c1.163,0,2.326,0.008,3.489,0.029c0.643,0.012,1.275-0.02,2.073-0.264c-0.6-0.457-1.112-0.559-1.653-0.496   c-1.233,0.144-2.471,0.146-3.709,0.163c-0.396,0.006-0.774-0.049-1.15-0.177c-0.226-0.077-0.421-0.2-0.412-0.447   c0.009-0.262,0.233-0.356,0.462-0.355c0.606,0.001,1.212,0.041,1.817,0.02c0.532-0.018,1.106,0.081,1.756-0.454   c-0.756-0.236-1.339-0.011-1.896-0.093c-0.256-0.038-0.52-0.019-0.78-0.032c-0.219-0.011-0.465-0.03-0.473-0.325   c-0.009-0.335,0.266-0.281,0.466-0.28c0.736,0.003,1.472,0.02,2.208,0.03c0.256,0.003,0.512,0.001,0.89,0.001   c-0.377-0.653-1.248,0.088-1.383-0.735c0.483-0.645,1.581-0.248,2.018-1.218c-0.936-0.634-2.017-0.418-2.983-0.682   c-0.384-0.105-0.938,0.22-1.114-0.384c-0.099-0.338,0.575-0.601,1.327-0.381c0.678,0.199,1.376,0.171,2.051,0.337   c0.249,0.061,0.518,0.046,0.778,0.052c0.239,0.005,0.431-0.099,0.462-0.362c0.032-0.274-0.143-0.414-0.384-0.425   c-1.044-0.047-2.004-0.576-3.059-0.554c-0.172,0.003-0.345-0.032-0.517-0.057c-0.257-0.039-0.576-0.067-0.534-0.428   c0.046-0.4,0.402-0.252,0.625-0.239c1.038,0.061,2.074,0.156,3.112,0.228c0.194,0.013,0.391-0.022,0.597-0.126   c-1.186-0.066-2.202-0.793-3.377-0.841c-0.262-0.011-0.419-0.081-0.384-0.372c0.025-0.212,0.185-0.268,0.37-0.29   c0.755-0.089,1.464,0.129,2.17,0.347c0.866,0.268,1.722,0.242,2.597-0.02c-0.484-0.443-1.11-0.341-1.653-0.516   c-0.782-0.252-1.592-0.409-2.387-0.618c-0.281-0.074-0.682-0.124-0.578-0.54c0.083-0.332,0.415-0.176,0.667-0.136   c0.939,0.151,1.879,0.29,2.821,0.421c0.256,0.035,0.519,0.034,0.778,0.029c0.267-0.005,0.531-0.049,0.581-0.396   c0.058-0.41-0.201-0.617-0.522-0.614c-1.061,0.011-1.965-0.719-3.035-0.648c-0.246,0.016-0.59-0.021-0.532-0.399   c0.063-0.407,0.398-0.195,0.632-0.195c0.776,0.001,1.552,0,2.431,0c-0.852-0.795-2.052-0.557-2.981-1.249   c1.125-0.725,2.236,0.321,3.501-0.213c-1.465-0.775-3.036-0.789-4.551-1.657c1.575-0.376,2.841,0.392,4.366,0.125   c-0.792-0.505-1.592-0.492-2.238-1.092c0.758-0.491,1.645,0.219,2.357-0.405c-0.382-0.493-1.242-0.149-1.456-0.883   c0.168-0.384,0.512-0.194,0.784-0.246c0.417-0.08,1.07,0.277,1.133-0.501c0.061-0.744-0.673-0.536-1.044-0.757   c-0.32-0.19-0.8-0.014-1.061-0.502c0.625-0.742,1.581,0.19,2.353-0.498c-0.612-0.234-1.118-0.394-1.663-0.439   c-0.219-0.018-0.455-0.107-0.419-0.392c0.035-0.277,0.286-0.309,0.504-0.303c0.432,0.013,0.863,0.06,1.295,0.07   c0.232,0.005,0.428-0.096,0.43-0.379c0.002-0.226-0.175-0.283-0.346-0.32c-0.501-0.11-1.004-0.215-1.519-0.451   c0.589-0.117,1.18-0.224,1.765-0.356c0.229-0.051,0.363-0.232,0.386-0.481c0.03-0.314-0.22-0.332-0.412-0.41   c-0.608-0.246-1.236-0.389-1.891-0.414c-0.235-0.009-0.588,0.075-0.545-0.348c0.034-0.339,0.344-0.365,0.605-0.37   c0.649-0.014,1.299-0.013,1.949-0.012c0.217,0,0.475,0.032,0.491-0.269c0.015-0.295-0.245-0.337-0.46-0.334   c-0.791,0.011-1.535-0.28-2.31-0.37c-0.261-0.03-0.725,0.104-0.626-0.394c0.076-0.381,0.477-0.319,0.774-0.239   c0.726,0.196,1.467,0.093,2.2,0.149c0.202,0.016,0.435,0.058,0.64-0.276c-0.844-0.697-1.952-0.65-3.082-1.051   c0.938-0.655,1.815-0.058,2.674-0.331c-0.246-0.387-0.636-0.38-0.968-0.475c-0.355-0.101-0.788-0.036-1.023-0.598   c0.706-0.274,1.347,0.131,1.991,0.113c0.253-0.007,0.517,0.15,0.592-0.253c0.063-0.34-0.132-0.487-0.403-0.574   c-0.805-0.258-1.563-0.665-2.44-0.787c1.336-0.592,2.678,0.157,4.082-0.153c-0.402-0.696-1.148-0.592-1.641-0.936   c-0.499-0.348-1.117-0.321-1.697-0.434c0.157-0.526,0.431-0.422,0.669-0.392c0.774,0.096,1.546,0.206,2.32,0.296   c0.21,0.024,0.46,0.025,0.532-0.244c0.085-0.319-0.127-0.53-0.375-0.615c-0.656-0.223-1.327-0.401-1.992-0.595   c-0.202-0.059-0.439-0.055-0.541-0.422c0.656-0.159,1.233,0.237,1.841,0.248c0.256,0.004,0.509,0.106,0.766,0.137   c0.301,0.036,0.497-0.124,0.571-0.422c0.077-0.308-0.049-0.539-0.328-0.639c-0.49-0.175-0.986-0.334-1.487-0.472   c-0.288-0.08-0.58-0.12-0.76-0.584c0.975-0.197,1.912,0.312,2.855-0.09c-0.325-0.77-1.085-0.346-1.567-0.653   c-0.5-0.318-1.127-0.422-1.699-0.747c1.095-0.317,2.238-0.05,3.355-0.332c-1.097-0.311-2.266-0.36-3.532-1.074   c1.372-0.476,2.592-0.051,3.702-0.367c0.004-0.377-0.221-0.409-0.435-0.42c-0.952-0.051-1.904-0.096-2.856-0.133   c-0.773-0.03-0.96-0.171-0.669-0.826c0.222-0.5-0.043-0.928,0.037-1.332c0.274-0.228,0.553-0.111,0.798-0.179   c0.33-0.091,0.921-0.004,0.411-0.687c-0.139-0.186,0.049-0.416,0.32-0.436c0.424-0.032,0.849-0.063,1.559-0.115   c-0.88-0.084-1.475-0.12-2.064-0.206c-0.271-0.04-0.572-0.293-0.351-0.545c0.482-0.549,0.432-1.643,1.511-1.526   c-0.068-0.386-0.597-0.407-0.437-0.794c0.145-0.353,0.49-0.319,0.793-0.291c0.687,0.063,1.371,0.103,2.355-0.174   c-1.128-0.713-2.265-0.127-3.201-0.771c0.787-0.817,1.415-1.774,2.728-1.499c0.224,0.047,0.456-0.027,0.433-0.333   c-0.018-0.24-0.158-0.407-0.424-0.404c-0.477,0.006-0.955,0-1.431,0.018c-0.214,0.008-0.431,0.104-0.638,0.08   c-0.254-0.029-0.532-0.136-0.525-0.473c0.006-0.265,0.242-0.37,0.453-0.396c0.473-0.058,0.951-0.074,1.427-0.109   c0.259-0.019,0.524-0.014,0.775-0.073c0.225-0.054,0.366-0.225,0.312-0.497c-0.046-0.23-0.232-0.249-0.397-0.247   c-0.606,0.007-1.212,0.037-1.819,0.047c-0.179,0.003-0.348-0.065-0.373-0.282c-0.024-0.211,0.12-0.345,0.286-0.386   c0.792-0.198,1.589-0.374,2.557-0.598c-0.774-0.679-1.735,0.044-2.317-0.593c0.069-0.334,0.317-0.334,0.502-0.425   c0.851-0.42,0.867-0.424,0.566-1.423c-0.101-0.334-0.009-0.514,0.264-0.635c0.278-0.123,0.578-0.197,0.844-0.342   c0.605-0.33,0.587-0.68-0.032-1.071c-0.478-0.302-0.534-0.64-0.04-0.844c0.95-0.392,1.177-1.079,1.043-2.022   c-0.069-0.489,0.121-0.785,0.623-0.788c0.54-0.003,0.645-0.354,0.626-0.805c-0.037-0.839-0.082-1.677-0.134-2.698   c-0.965,0.826-1.795,1.572-2.663,2.266c-0.686,0.549-1.344,1.434-2.331,0.472c-1.365,0.052-2.243-0.895-3.165-1.704   c-0.639-0.561-0.521-0.577-0.017-1.237c1.482-1.942,3.654-3.057,5.273-4.819c0.867-0.943,1.739-1.868,2.751-2.643   c0.199-0.152,0.223-0.353,0.12-0.592c-0.25-0.584-0.018-1.137,0.105-1.705c0.322-1.486,0.666-2.966,0.528-4.517   c-0.075-0.842,0.115-1.049,0.941-1.06c1.693-0.024,3.376-0.17,5.063-0.286c0.666-0.046,1.079-0.212,1.53-0.707   c1.25-1.369,2.472-2.744,3.344-4.419c0.224-0.431,0.534-0.818,0.825-1.209c0.466-0.627,0.723-0.685,1.254-0.145   c0.755,0.766,1.609,1.357,2.553,1.829c0.156,0.078,0.312,0.163,0.45,0.271c0.618,0.483,0.62,0.864-0.038,1.328   c-0.938,0.662-1.789,1.421-2.53,2.308c-0.16,0.192-0.406,0.353-0.364,0.668c0.084,0.227,0.284,0.188,0.442,0.187   c3.549-0.026,7.069,0.555,10.636,0.377c3.241-0.162,6.499,0.096,9.747,0.046c1.692-0.026,3.373,0.167,5.061,0.092   c0.2-0.009,0.435,0.093,0.59-0.138c-1.142-1.943-1.464-2.298-2.96-3.248c0.204-0.666,0.646-1.109,1.222-1.457   c0.825-0.498,1.588-1.065,2.257-1.798c0.862-0.944,1.519-0.832,2.1,0.336c1.113,2.237,2.508,4.297,3.692,6.487   c0.402,0.744,0.922,1.127,1.768,1.059c0.907-0.073,1.825-0.03,2.728-0.132c1.423-0.161,2.847-0.151,4.273-0.17   c0.621-0.008,0.886,0.258,0.806,0.893c-0.347,2.761-0.314,5.539-0.37,8.314c-0.007,0.359-0.004,0.719,0.021,1.077   c0.071,1.045,0.43,1.858,1.44,2.337c0.862,0.408,1.642,0.998,2.468,1.49c0.637,0.379,0.889,0.909,0.755,1.667   c-0.212,1.192-0.4,2.388-0.966,3.472c-0.123,0.235-0.222,0.458-0.24,0.746c-0.05,0.791-0.442,1.056-1.15,0.83   c-0.566-0.181-0.96-0.627-1.312-1.066c-0.457-0.57-1.065-0.908-1.61-1.345c-0.468-0.375-0.686-0.156-0.84,0.323   c-0.439,1.368-0.597,2.798-0.888,4.199c-0.893,4.299-1.348,8.67-1.979,13.011c-0.457,3.145-0.745,6.318-0.741,9.519   c0.005,3.724-0.399,7.422-1.093,11.083c-0.268,1.416-0.671,2.853-1.311,4.055c-0.582,1.091-1.033,2.323-1.892,3.219   c0.111,0.445,0.582,0.098,0.8,0.592c-1.808,0.498-2.935,1.91-4.162,3.224c0.387,0.454,0.934-0.132,1.349,0.314   c-0.762,0.878-1.892,0.698-2.869,1.08c0.423,0.539,0.952,0.315,1.441,0.276c0.192-0.015,0.371,0.045,0.402,0.234   c0.042,0.258-0.139,0.452-0.368,0.454c-0.818,0.007-1.637-0.015-2.455-0.049c-0.226-0.01-0.419-0.016-0.62,0.345   c0.745-0.088,1.39,0.201,2.079,0.069c0.258-0.05,0.601-0.067,0.649,0.252c0.072,0.477-0.367,0.4-0.633,0.436   c-0.867,0.119-1.745,0.384-2.577-0.183c-0.15-0.102-0.345,0.02-0.435,0.179c-0.207,0.367,0.125,0.324,0.296,0.365   c0.217,0.052,0.416,0.112,0.522,0.32c-0.073,0.409-0.532,0.259-0.712,0.58c0.339,0.546,0.883,0.363,1.361,0.396   c0.473,0.033,0.932,0.124,1.354,0.347c0.003,0.236-0.101,0.351-0.31,0.327c-0.913-0.107-1.862-0.545-2.658,0.335   c-0.798-0.293-1.629,0.013-2.438-0.145c-0.311-0.061-0.673-0.227-0.992,0.275c0.732,0.318,1.531,0.036,2.202,0.309   c0.016,0.457-0.46,0.311-0.516,0.529c-0.314,1.229-1.214,0.974-2.068,0.966c-0.549-0.005-1.255-0.423-1.609,0.456   c-0.023,0.056-0.401-0.054-0.614-0.065c-1.335-0.065-2.67-0.123-4.015-0.085c0.85,0.787,1.973,0.216,2.874,0.646   c0.91,0.435,1.971-0.118,2.894,0.483c-0.673,0.507-1.382,0.344-2.044,0.286c-0.695-0.061-1.414-0.194-2.053,0.051   c-0.762,0.291-0.735,0.308-1.472,0.364c-0.644,0.049-1.344-0.488-2.008,0.152c1.183,0.617,2.535,0.134,3.7,0.878   c-0.467,0.032-0.871,0.145-1.24,0.072c-1.93-0.383-3.891-0.247-5.834-0.388c-1.595-0.115-3.185,0.213-4.763,0.475   c-0.103,0.017-0.253,0.167-0.261,0.267c-0.016,0.186,0.119,0.319,0.313,0.35c0.552,0.09,1.103,0.232,1.658,0.259   c1.156,0.055,2.26,0.552,3.44,0.401c0.198-0.025,0.442,0.04,0.608,0.153c0.113,0.077,0.15,0.308,0.168,0.476   c0.004,0.037-0.222,0.158-0.329,0.142c-0.768-0.112-1.53-0.265-2.298-0.375c-1.077-0.154-2.148-0.224-3.209,0.168   c-0.809,0.299-1.602,0.013-2.387-0.193c-2.263-0.595-4.557-0.781-6.902-0.545c1.657,0.411,3.272,0.912,4.968,1.61   c-0.661,0.286-1.132-0.01-1.608-0.106c-2.465-0.5-4.94-0.958-7.447-1.113c-2.679-0.166-5.367-0.293-8.049-0.257   c-0.906,0.012-1.773,0.196-2.632-0.234c-0.164-0.082-0.42-0.093-0.61,0.22c0.504,0.381,1.11,0.38,1.676,0.474   c2.145,0.357,4.305,0.462,6.474,0.37c0.914-0.039,1.278-0.125,1.422,1.243c-1.125,0.025-2.214-0.255-3.318-0.347   c-0.579-0.048-1.404-0.573-1.666,0.6c-0.061,0.271-0.545,0.164-0.843,0.179c-0.8,0.042-1.604-0.204-2.658,0.023   c0.573,0.335,0.973,0.408,1.392,0.434c0.227,0.014,0.448,0.068,0.409,0.375c-0.031,0.247-0.187,0.395-0.438,0.402   c-0.26,0.008-0.528,0.049-0.779,0.003c-1.238-0.227-2.518-0.012-3.74-0.384c-0.59-0.179-1.158,0.342-1.764,0.084   c1.277,0.833,2.874-0.281,4.114,0.725c-0.099,0.415-0.414,0.361-0.721,0.345c-2.548-0.137-5.049-0.616-7.575-1.109   c0.471-0.224,0.942-0.175,1.412-0.143c0.173,0.011,0.408,0.075,0.511-0.014c0.984-0.856,2.107-0.401,3.18-0.393   c0.145,0.001,0.248-0.048,0.336-0.175c-0.038-0.421-0.379-0.221-0.585-0.287c-0.679-0.217-1.472-0.056-2.001-0.774   c-0.21-0.285-0.647-0.178-0.989-0.212c-0.176-0.018-0.339-0.121-0.348-0.331c-0.012-0.291,0.237-0.444,0.419-0.383   c0.888,0.297,1.809,0.005,2.705,0.226C19.057,93.342,20.608,93.456,22.179,93.382z M56.348,81.411   c-0.51-0.016-1.022-0.36-1.126,0.553c-0.052,0.464-0.512,0.575-0.918,0.587c-1.212,0.036-2.43,0.153-3.632-0.08   c-0.415-0.08-0.922,0.093-1.292-0.283c0.235-0.539,0.614-0.381,0.938-0.405c0.164-0.012,0.448-0.05,0.363-0.257   c-0.331-0.795,0.16-0.908,0.708-1.034c0.221-0.051,0.102-0.272,0.143-0.417c0.157-0.558,0.12-1.411,0.612-1.574   c0.582-0.193,0.828-0.958,1.535-0.833c0.097,0.017,0.418-0.1,0.297-0.32c-0.324-0.587,0.102-0.59,0.435-0.639   c1.197-0.178,2.363-0.578,3.591-0.524c0.129,0.006,0.263,0.005,0.389-0.021c0.13-0.027,0.34,0.046,0.34-0.215   c-0.859-0.212-1.701-0.173-2.549-0.027c-0.24,0.041-0.59,0.118-0.663-0.218c-0.069-0.312-0.457-0.695-0.077-0.966   c0.473-0.337,0.196-0.672,0.237-1.045c0.074-0.677,0.035-1.241-0.181-1.863c-0.132-0.378,0.161-0.629,0.457-0.866   c0.198-0.158,0.458-0.348,0.25-0.777c-0.376-0.773-0.288-1.048,0.398-1.246c1.499-0.433,2.993-0.856,4.587-0.845   c1.826,0.012,3.585,0.526,5.399,0.658c-0.176-1.163,0.158-2.143,0.793-3.251c0.183,0.66-0.046,1.069-0.085,1.493   c-0.124,1.336,0.3,1.999,1.521,2.409c1.16,0.39,2.34,0.613,3.569,0.576c1.372-0.041,2.296-0.892,2.504-2.31   c0.17-1.158,0.237-2.31,0.165-3.484c-0.057-0.937-0.045-1.892,0.061-2.824c0.602-5.251,1.361-10.483,1.805-15.753   c0.268-3.177,1.076-6.27,1.382-9.442c0.064-0.665,0.074-1.344,0.314-1.985c0.584-1.561,0.608-3.255,1.066-4.848   c0.138-0.482-0.021-0.766-0.537-0.835c-0.538-0.072-1.122-0.037-1.52-0.478c0.034-0.532,0.556-0.453,0.74-0.811   c-0.428-0.093-0.801-0.314-1.249-0.321c-0.56-0.008-0.97-0.182-0.66-0.905c0.09-0.209-0.023-0.328-0.227-0.371   c-0.417-0.089-0.979-0.094-0.878-0.729c0.083-0.521,0.626-0.346,0.981-0.443c0.063-0.017,0.111-0.097,0.164-0.147   c-0.076-0.185-0.218-0.29-0.392-0.325c-0.552-0.111-1.106-0.209-1.659-0.312c-0.227-0.042-0.424-0.135-0.431-0.409   c-0.009-0.35,0.219-0.435,0.508-0.46c0.32-0.028,0.669,0.222,0.964-0.092c-0.057-0.385-0.352-0.345-0.599-0.368   c-0.474-0.046-0.955-0.042-1.386-0.304c-0.125-0.076-0.175-0.177-0.155-0.314c0.138-0.413,0.618-0.382,0.898-0.674   c-0.153-0.057-0.232-0.099-0.316-0.115c-1.471-0.29-1.486-0.331-0.526-1.508c-0.557-0.452-1.23-0.343-1.862-0.443   c-0.327-0.051-0.68-0.154-0.557-0.689c0.195-0.844,0.103-1.182-0.658-1.283c-0.889-0.118-0.76-1.198-1.496-1.398   c-0.119-0.032,0.002-0.393,0.211-0.535c0.21-0.142,0.526,0.044,0.696-0.264c-0.787-0.096-1.56-0.188-2.334-0.285   c-0.203-0.025-0.474,0.018-0.48-0.302c-0.006-0.317,0.188-0.469,0.49-0.501c0.493-0.051,1.009,0.079,1.489-0.147   c-0.093-0.296-0.265-0.406-0.501-0.424c-1.383-0.105-2.765-0.23-4.15-0.304c-0.714-0.038-1.475,0.224-1.966-0.623   c-0.131-0.226-0.483-0.14-0.739-0.143c-2.862-0.031-5.723-0.053-8.585-0.086c-2.384-0.027-4.777,0.251-7.151-0.064   c-1.944-0.258-3.9-0.125-5.84-0.355c-0.614-0.073-1.025,0.179-1.393,0.731c-0.711,1.067-1.444,2.125-2.303,3.08   c-2.361,2.625-4.71,5.26-7.06,7.895c-0.352,0.395-0.679,0.813-1.024,1.214c-0.215,0.25-0.317,0.518-0.245,0.86   c0.252,1.184,0.077,2.387,0.107,3.579c0.067,2.655-0.752,5.222-0.847,7.874c-0.069,1.926-0.65,3.806-0.768,5.713   c-0.257,4.162-0.888,8.29-0.972,12.463c-0.01,0.493-0.042,0.979-0.107,1.471c-0.304,2.301-0.6,4.604-0.833,6.914   c-0.179,1.778-0.225,3.571-0.393,5.351c-0.139,1.471-0.303,2.936-0.339,4.417c-0.08,3.265,0.161,6.535-0.271,9.796   c-0.266,2.008-0.145,2.065,1.87,2.1c2.123,0.037,4.254-0.108,6.367,0.174c1.522,0.203,3.025-0.168,4.54-0.067   c3.415,0.229,6.828,0.479,10.246,0.653c0.93,0.048,1.87-0.142,2.806-0.223c-1.477-0.251-2.878-0.851-4.365-0.669   c-0.19,0.023-0.349,0.016-0.383-0.214c-0.04-0.273,0.107-0.442,0.356-0.444c0.953-0.007,1.907,0.007,2.86,0.017   c0.481,0.005,0.977,0.157,1.594-0.177c-0.702-0.203-1.249-0.24-1.812-0.162c-0.41,0.057-1.017,0.255-1.028-0.384   c-0.01-0.554,0.59-0.343,0.95-0.347c2.08-0.022,4.161-0.044,6.241-0.046C54.954,83.138,55.851,82.703,56.348,81.411z    M58.642,69.758c0.603,1.364,1.071,2.601,1.448,3.887c0.479,1.634,0.086,3.18-0.501,4.55c-0.51,1.189-1.203,2.36-1.902,3.492   c-0.774,1.254-1.93,2.178-2.627,3.479c-0.134,0.251-0.539,0.433-0.287,0.787c0.17,0.24,0.475,0.135,0.729,0.084   c3.303-0.67,6.402-1.832,9.064-4.042c0.472-0.392,0.908-0.853,1.43-1.153c1.607-0.922,2.607-2.467,3.713-3.874   c1.058-1.346,1.337-3.146,2.167-4.645c0.125-0.225,0.034-0.445-0.19-0.556c-0.232-0.114-0.481-0.19-0.723-0.281   c-2.652-0.994-5.405-1.567-8.181-2.001C61.462,69.28,60.12,69.357,58.642,69.758z M42.203,6.629   c-0.427-0.538-0.954-0.77-1.408-1.095c-0.952-0.681-0.973-0.672-1.699,0.198c-0.281,0.337-0.511,0.721-0.767,1.081   c-0.741,1.045-1.482,2.084-2.358,3.024c-1.437,1.543-2.795,3.166-4.209,4.733c-1.83,2.029-3.735,3.991-5.771,5.788   c-2.135,1.885-4.034,4.051-6.35,5.718c-0.285,0.205-0.239,0.431-0.02,0.662c0.191,0.202,0.407,0.311,0.69,0.3   c0.724-0.028,1.374,0.17,1.884,0.732c0.293,0.322,0.496,0.108,0.773-0.064c2.149-1.336,3.708-3.34,5.434-5.146   c1.702-1.78,3.286-3.68,4.951-5.498c1.849-2.019,3.551-4.165,5.077-6.448C39.45,9.086,40.646,7.777,42.203,6.629z M68.403,5.174   c-0.81,0.377-1.328,1.079-2.02,1.528c-0.707,0.458-0.667,0.504-0.117,1.235c1.215,1.614,2.828,2.903,3.682,4.814   c0.017,0.039,0.057,0.067,0.087,0.099c2.444,2.576,4.247,5.647,6.169,8.621c1.665,2.576,3.397,5.087,5.636,7.173   c0.644,0.6,1.335,1.145,1.974,1.751c0.846,0.801,1.33,1.292,1.762-0.469c0.031-0.128,0.112-0.242,0.165-0.366   c0.706-1.64,0.592-2.229-0.913-3.033c-1.477-0.789-2.822-1.709-4.01-2.92c-0.562-0.573-1.019-1.22-1.516-1.836   c-2.697-3.342-5.126-6.885-7.327-10.596C70.799,9.193,69.617,7.214,68.403,5.174z M81.06,21.709   c0.247-2.734,0.364-5.389,0.313-8.051c-0.01-0.504-0.269-0.558-0.654-0.592c-1.899-0.169-3.783,0.062-5.668,0.226   c-0.051,0.004-0.093,0.129-0.179,0.258C76.653,16.462,78.574,19.291,81.06,21.709z M35.976,91.172   c-2.498-0.4-5.032-0.793-7.587-0.68c-2.478,0.11-4.936-0.511-7.414-0.231c0.598,0.34,1.157,0.754,1.837,0.67   c1.103-0.136,2.179,0.398,3.287,0.119c0.159-0.04,0.362-0.019,0.512,0.05c1.659,0.755,3.395,0.113,5.093,0.284   C33.109,91.525,34.551,91.258,35.976,91.172z M28.321,14.586c0.67-0.584,1.786-0.383,2.184-1.397   c0.021-0.053,0.161-0.097,0.233-0.081c1.258,0.266,1.535-0.9,2.269-1.49c-0.61-0.422-0.778,0.565-1.054,0.271   c-0.539-0.573-1.144-0.239-1.696-0.289c-1.805-0.162-1.828-0.124-1.91,1.708C28.329,13.7,28.009,14.064,28.321,14.586z    M33.405,87.908c-3.14-0.604-6.291-0.744-9.446-0.37c-0.035,0.251,0.082,0.373,0.192,0.377   C27.235,88.035,30.32,88.072,33.405,87.908z M35.357,89.839c-1.214-0.199-2.398-0.632-3.656-0.473   c-0.433,0.055-0.857-0.022-1.265-0.198c-0.774-0.334-1.58-0.309-2.398-0.14C30.431,89.733,32.914,89.606,35.357,89.839z    M54.185,84.261c-1.263-0.303-2.529-0.234-3.798-0.08C51.651,84.316,52.902,84.765,54.185,84.261z M40.384,89.212   c-0.863,0-1.725,0-2.68,0C38.653,89.694,39.516,89.694,40.384,89.212z M42.066,89.938c0.857,0.268,1.726,0.276,2.603,0.1   C43.794,90.083,42.969,89.482,42.066,89.938z M41.01,87.679c-0.819-0.209-1.659-0.301-2.511-0.05   C39.323,87.772,40.139,88.011,41.01,87.679z M18.048,91.516c0.498,0.381,1.041,0.278,1.495,0.458   c0.171,0.068,0.36-0.031,0.373-0.234c0.013-0.19-0.179-0.364-0.32-0.333C19.118,91.513,18.615,91.145,18.048,91.516z    M51.358,81.425c0.802,0.235,1.629,0.244,2.749,0.032C53.009,81.221,52.198,81.195,51.358,81.425z M60.457,86.736   c-0.574-0.351-0.574-0.351-1.308-0.101C59.594,86.812,59.992,87.082,60.457,86.736z M22.365,60.924   c-0.194,0-0.322,0.104-0.345,0.297c-0.024,0.199,0.086,0.338,0.277,0.356c0.135,0.013,0.238-0.089,0.263-0.228   C22.592,61.168,22.561,61.002,22.365,60.924z M38.286,91.168c0.211,0.007,0.415,0.144,0.588-0.031   C38.673,91.04,38.467,91.058,38.286,91.168z M21.618,79.702c-0.045-0.082-0.051-0.269-0.226-0.162   c-0.093,0.057-0.171,0.183-0.2,0.293c-0.031,0.12,0.029,0.269,0.174,0.261C21.572,80.084,21.612,79.907,21.618,79.702z    M57.31,80.143c-0.023-0.139-0.084-0.227-0.236-0.176c-0.158,0.053-0.342,0.101-0.341,0.314c0.001,0.138,0.128,0.222,0.253,0.201   C57.158,80.452,57.277,80.332,57.31,80.143z M20.593,76.616c-0.03-0.132-0.076-0.25-0.241-0.199c-0.129,0.04-0.2,0.139-0.183,0.278   c0.018,0.144,0.108,0.234,0.252,0.203C20.558,76.87,20.597,76.751,20.593,76.616z M21.702,66.852   c-0.141,0.022-0.262,0.113-0.227,0.248c0.027,0.104,0.153,0.224,0.256,0.251c0.156,0.042,0.192-0.123,0.191-0.243   C21.922,66.972,21.853,66.864,21.702,66.852z"></path>
      <path d="M51.585,91.082c-1.315,0.598-2.511,0.294-3.885,0.565C48.394,90.985,48.744,90.947,51.585,91.082z"></path>
      <path d="M13.09,86.342c0.681-0.229,1.364-0.198,2.042,0.046C14.458,86.768,13.779,86.672,13.09,86.342z"></path>
      <path d="M75.214,33.692c0,1.421,0,2.843,0,4.398c0.719-2.396,0.915-4.783,1.41-7.111c0.276,1.109,0.038,2.195-0.149,3.256   c-0.412,2.334-0.932,4.647-1.388,6.974c-0.076,0.39-0.076,0.8-0.073,1.201c0.028,4.353-0.23,8.674-0.853,12.991   c-0.575,3.986-1.381,7.95-1.45,12.005c-0.008,0.487-0.066,0.981-0.426,1.395c-0.498-0.311-0.3-0.801-0.274-1.206   c0.152-2.414,0.336-4.83,0.76-7.21c1.207-6.761,1.871-13.567,1.835-20.45C74.594,37.845,74.89,35.762,75.214,33.692z"></path>
      <path d="M69.866,67.393c-0.343,0.365-0.352,0.998-1.014,0.568c-0.061-0.04-0.192-0.087-0.201-0.072   c-0.18,0.296-0.333,0.746-0.744,0.319c-0.283-0.294-0.066-0.677,0.043-1.015c0.162-0.503,0.252-1.039,0.603-1.459   c0.437,0.107,0.113,0.583,0.393,0.761c0.344-0.361,0.388-0.882,0.616-1.302c0.309-0.569,0.082-1.439,0.973-1.725   c0.187-0.06,0.232-0.73,0.272-1.127c0.261-2.558,1.06-4.983,1.718-7.442c0.24-0.896,0.348-1.842,0.89-2.779   c0.201,0.873-0.098,1.589-0.288,2.26c-1.181,4.186-2.042,8.426-2.261,12.792c-0.018,0.355-0.11,0.706-0.177,1.057   c-0.046,0.237-0.165,0.428-0.427,0.402c-0.24-0.025-0.387-0.186-0.395-0.447C69.86,67.922,69.866,67.657,69.866,67.393z"></path>
      <path d="M25.784,82.528c0.41-0.22,0.512-0.312,0.624-0.327c0.256-0.035,0.52-0.067,0.774-0.039c2.941,0.328,5.898,0.302,9.05,0.286   c-0.889,0.672-2.317,0.746-5.132,0.55C29.423,82.88,27.751,82.737,25.784,82.528z"></path>
      <path d="M29.946,57.987c-0.446,1.179-0.227,2.376-0.157,3.565c0.027,0.455-0.086,0.877-0.188,1.315   c-0.15,0.643-0.256,1.295,0.137,1.943c0.26,0.428-0.177,1.232-0.661,1.315c-0.272,0.046-0.493-0.137-0.645-0.37   c-0.15-0.232-0.069-0.461,0.141-0.563c0.261-0.127,0.451-0.254,0.397-0.587c-0.268-1.643,0.424-3.251,0.128-4.917   C28.964,58.919,29.215,58.682,29.946,57.987z"></path>
      <path d="M27.409,81.13c1.721-0.697,3.537,0.124,5.401-0.547c-0.562,0.903-0.562,0.899-1.184,0.957   C30.202,81.674,28.819,81.322,27.409,81.13z"></path>
      <path d="M27.41,71.659c1.518,0.067,3.067-0.248,4.641,0.308C31.129,72.586,28.479,72.464,27.41,71.659z"></path>
      <path d="M31.714,74.471c-1.228,0-2.456,0.006-3.684-0.007c-0.172-0.002-0.337-0.136-0.334-0.334   c0.003-0.211,0.174-0.283,0.36-0.281C29.289,73.861,30.522,73.884,31.714,74.471z"></path>
      <path d="M27.761,69.689c1.08,0,2.141-0.012,3.202,0.009c0.247,0.005,0.547,0.105,0.527,0.435c-0.015,0.253-0.276,0.309-0.494,0.319   c-0.984,0.043-1.96-0.06-2.933-0.194C27.905,70.236,27.753,70.111,27.761,69.689z"></path>
      <path d="M30.669,67.743c0.002,0.044,0.018,0.092,0.005,0.129c-0.246,0.689-1.173,0.25-1.486,0.966   c-0.071,0.162-0.665-0.244-0.912-0.537c-0.154-0.182-0.081-0.426,0.146-0.549c0.609-0.329,1.35,0.044,1.958-0.387   C30.46,67.309,30.614,67.574,30.669,67.743z"></path>
      <path d="M29.045,79.756c0.826-0.124,1.651-0.257,2.48-0.365c0.154-0.02,0.362,0.016,0.398,0.233   c0.046,0.274-0.16,0.438-0.359,0.467c-0.831,0.122-1.666,0.16-2.489-0.017C29.065,79.968,29.055,79.862,29.045,79.756z"></path>
      <path d="M29.379,51.747c-0.317,1.166,0.924,2.455-0.204,3.554C29.592,54.13,28.731,52.897,29.379,51.747z"></path>
      <path d="M28.979,77.929c0.812-0.288,1.553-0.009,2.188-0.439c0.154,0.622-0.12,0.748-0.438,0.783   C30.173,78.335,29.565,78.779,28.979,77.929z"></path>
      <path d="M30.974,75.579c-1.435,0.762-1.795,0.769-2.466,0.149C29.264,75.502,29.982,75.523,30.974,75.579z"></path>
    </g>
  </g>
  <g id="SvgjsG2855" transform="matrix(1,0,0,1,115,57)" fill="#c12f2f">
    <path d=""></path>
  </g>
  <g id="SvgjsG2856" transform="matrix(0.6397724747657776,0,0,0.6397724747657776,69.97761050147368,25.008174176338656)" fill="#c12f2f">
    <title xmlns="http://www.w3.org/2000/svg"></title>
    <path xmlns="http://www.w3.org/2000/svg" d="M58.44,50l-6.88-.07H57.8a14,14,0,1,0,0-28.06H28.17V22a14,14,0,0,1,0,27.84v.24C34.83,50.58,40.5,56.6,40.5,64A14,14,0,0,1,28.17,77.88v.26H51.56v0L57.8,78a14,14,0,0,0,14-14C71.83,56.21,65.55,49.93,58.44,50ZM51.56,23.56a18.91,18.91,0,0,1,0,25.64Zm0,52.88V50.67a20.57,20.57,0,0,1,5,13.79C56.57,68.94,54.36,73.16,51.56,76.44Z"></path>
  </g>
  <g id="SvgjsG2857" transform="matrix(2.4827585220336914,0,0,2.4827585220336914,118.51034506436054,25.34482877007846)" fill="#c12f2f">
    <path d="M0.6 5.5 l2.98 0 l0 11.8 l2.92 0 l-0.5 2.7 l-5.4 0 l0 -14.5 z M10.28 18.2 l-0.26 1.8 l-2.92 0 l2.62 -14.5 l3.1 0 l2.62 14.5 l-2.92 0 l-0.26 -1.8 l-1.98 0 z M10.6 15.9 l1.34 0 l-0.66 -5.14 z M16.240000000000002 5.5 l2.76 0 l1.48 5.82 l0 -5.82 l2.98 0 l0 14.5 l-2.98 0 l-1.56 -6.06 l0 6.06 l-2.68 0 l0 -14.5 z M27.62 11.72 l0.44 0 l1.48 -6.22 l3 0 l-1.74 6.68 l1.72 7.82 l-3.18 0 l-1.14 -5.98 l-0.58 0 l0 5.98 l-2.96 0 l0 -14.5 l2.96 0 l0 6.22 l0 0 z M38.72 8.04 l0 5.7 l1.44 0 c0.12 0 0.19666 -0.02334 0.23 -0.07 s0.05 -0.12332 0.05 -0.22998 l0 -5.12 c0 -0.18666 -0.08666 -0.28 -0.26 -0.28 l-1.46 0 z M41.54 5.5 c0.57334 0 1.0033 0.15998 1.29 0.47998 s0.43 0.74666 0.43 1.28 l0 6.94 c0 0.28 -0.03 0.53666 -0.09 0.77 s-0.17 0.43668 -0.33 0.61002 s-0.37334 0.31 -0.64 0.41 s-0.6 0.15 -1 0.15 l-2.48 0 l0 3.86 l-2.88 0 l0 -14.5 l5.7 0 z M46.620000000000005 18.2 l-0.26 1.8 l-2.92 0 l2.62 -14.5 l3.1 0 l2.62 14.5 l-2.92 0 l-0.26 -1.8 l-1.98 0 z M46.940000000000005 15.9 l1.34 0 l-0.66 -5.14 z M55.46 8.04 l0 5.7 l1.44 0 c0.12 0 0.19666 -0.02334 0.23 -0.07 s0.05 -0.12332 0.05 -0.22998 l0 -5.12 c0 -0.18666 -0.08666 -0.28 -0.26 -0.28 l-1.46 0 z M58.28 5.5 c0.57334 0 1.0033 0.15998 1.29 0.47998 s0.43 0.74666 0.43 1.28 l0 6.94 c0 0.28 -0.03 0.53666 -0.09 0.77 s-0.17 0.43668 -0.33 0.61002 s-0.37334 0.31 -0.64 0.41 s-0.6 0.15 -1 0.15 l-2.48 0 l0 3.86 l-2.88 0 l0 -14.5 l5.7 0 z M61.14000000000001 5.5 l5.64 0 l0.5 2.7 l-3.16 0 l0 3.44 l2.4 0 l0 2.5 l-2.4 0 l0 3.16 l3.04 0 l-0.5 2.7 l-5.52 0 l0 -14.5 z M71.18 8.04 l0 5 l1.42 0 c0.18666 0 0.28 -0.1 0.28 -0.3 l0 -4.4 c0 -0.2 -0.09334 -0.3 -0.28 -0.3 l-1.42 0 z M75.74000000000001 14.1 c0 0.32 -0.11 0.61334 -0.33 0.88 s-0.54334 0.4 -0.97 0.4 l1.52 4.62 l-3 0 l-1.4 -4.62 l-0.38 0 l0 4.62 l-2.9 0 l0 -14.5 l5.5 0 c0.68 0 1.1767 0.17 1.49 0.51 s0.47 0.79666 0.47 1.37 l0 6.72 z M79.48 5.5 l2.98 0 l0 11.8 l2.92 0 l-0.5 2.7 l-5.4 0 l0 -14.5 z M89.16 18.2 l-0.26 1.8 l-2.92 0 l2.62 -14.5 l3.1 0 l2.62 14.5 l-2.92 0 l-0.26 -1.8 l-1.98 0 z M89.48 15.9 l1.34 0 l-0.66 -5.14 z M98 8.04 l0.000019531 3.8 l1.36 0 c0.10666 0 0.19332 -0.03 0.25998 -0.09 s0.1 -0.15666 0.1 -0.29 l0 -3.14 c0 -0.18666 -0.08666 -0.28 -0.26 -0.28 l-1.46 0 z M99.75999999999999 14.46 c0 -0.16 -0.04 -0.27002 -0.12 -0.33002 s-0.18666 -0.09 -0.32 -0.09 l-1.32 0 l0 3.42 l1.46 0 c0.12 0 0.2 -0.02334 0.24 -0.07 s0.06 -0.12332 0.06 -0.22998 l0 -2.7 z M102.5 11.24 c0 0.36 -0.07 0.67 -0.21 0.93 s-0.40334 0.44334 -0.79 0.55 c0.4 0.02666 0.69 0.16666 0.87 0.42 s0.27 0.54 0.27 0.86 l0 3.76 c0 0.8 -0.16666 1.3733 -0.5 1.72 s-0.92 0.52 -1.76 0.52 l-5.26 0 l0 -14.5 l5.66 0 c0.57334 0 1.0033 0.16 1.29 0.48 s0.43 0.74666 0.43 1.28 l0 3.98 z M104.55999999999999 20 l-0.51996 -2.7 l3.12 0 c0.22666 0 0.34 -0.1 0.34 -0.3 l0 -2.64 c0 -0.2 -0.04 -0.32 -0.12 -0.36 s-0.22 -0.06 -0.42 -0.06 l-1.5 0 c-0.21334 0 -0.41668 -0.01666 -0.61002 -0.05 s-0.36668 -0.11 -0.52002 -0.23 s-0.27334 -0.28666 -0.36 -0.5 s-0.13 -0.5 -0.13 -0.86 l0 -4.92 c0 -0.57334 0.15666 -1.03 0.47 -1.37 s0.81 -0.51 1.49 -0.51 l4 0 l0.5 2.7 l-3.28 0 c-0.24 0 -0.36 0.10666 -0.36 0.32 l0 2.64 c0 0.14666 0.03666 0.24666 0.11 0.3 s0.18334 0.08 0.33 0.08 l1.82 0 c0.46666 0 0.82332 0.11 1.07 0.33 s0.37 0.60334 0.37 1.15 l0 4.78 c0 0.8 -0.16334 1.3667 -0.49 1.7 s-0.90332 0.5 -1.73 0.5 l-3.58 0 z"></path>
  </g>
</svg>